<svg width="24" height="17" viewBox="0 0 24 17" fill="none" xmlns="http://www.w3.org/2000/svg">
<path d="M10.2912 10.937C8.94789 12.0761 8.19148 13.532 8.19148 14.8384C8.19148 15.2127 8.26911 15.5737 8.45438 15.8874H2.28042C1.26155 15.8874 0.857239 15.4931 0.857239 14.7753C0.857239 12.5982 3.13757 9.97158 6.78447 9.97158C8.16664 9.97158 9.35252 10.3489 10.2912 10.937ZM9.60659 5.72789C9.60659 7.43959 8.29657 8.76471 6.79255 8.76471C5.28042 8.76471 3.97045 7.43959 3.97045 5.74367C3.97045 4.05567 5.28851 2.77783 6.79255 2.77783C8.2885 2.77783 9.60659 4.02411 9.60659 5.72789Z" fill="#3A8DFF"/>
<path d="M16.1001 8.58331C17.8387 8.58331 19.3347 7.06883 19.3347 5.09686C19.3347 3.14856 17.8306 1.70508 16.1001 1.70508C14.3697 1.70508 12.8656 3.18011 12.8656 5.11264C12.8656 7.06883 14.3616 8.58331 16.1001 8.58331ZM11.0139 15.8874H21.1783C22.4479 15.8874 22.9007 15.5325 22.9007 14.8384C22.9007 12.8033 20.2888 9.9952 16.0921 9.9952C11.9034 9.9952 9.2915 12.8033 9.2915 14.8384C9.2915 15.5325 9.74437 15.8874 11.0139 15.8874Z" fill="#3A8DFF"/>
</svg>
