<svg width="23" height="24" viewBox="0 0 23 24" fill="none" xmlns="http://www.w3.org/2000/svg">
<path d="M18 22V8C18 6.9 17.1 6 16 6H2C0.9 6 0 6.9 0 8V22C0 23.1 0.9 24 2 24H16C17.1 24 18 23.1 18 22ZM5.9 16.98L8 19.51L11.1 15.52C11.3 15.26 11.7 15.26 11.9 15.53L15.41 20.21C15.4657 20.2843 15.4996 20.3726 15.508 20.4651C15.5163 20.5576 15.4987 20.6506 15.4572 20.7336C15.4157 20.8167 15.3519 20.8865 15.2729 20.9353C15.1939 20.9841 15.1029 21.01 15.01 21.01H3.02C2.6 21.01 2.37 20.53 2.63 20.2L5.12 17C5.31 16.74 5.69 16.73 5.9 16.98Z" fill="#3A8DFF"/>
<path d="M7 1H21C21.5477 1 22 1.45228 22 2V16C22 16.5477 21.5477 17 21 17H14.6699L12.2568 11.1201L12.002 10.5H11.332C11.0628 10.5 10.827 10.5833 10.6738 10.6484C10.5051 10.7202 10.3372 10.8129 10.1807 10.9102C9.86695 11.105 9.51783 11.3665 9.16406 11.6484C8.45579 12.2128 7.63087 12.9432 6.89453 13.585C6.57402 13.8643 6.2721 14.1226 6 14.3506V2C6 1.45228 6.45228 1 7 1Z" stroke="#3A8DFF" stroke-width="2"/>
</svg>
