<svg width="171" height="171" viewBox="0 0 171 171" fill="none" xmlns="http://www.w3.org/2000/svg">
<path fill-rule="evenodd" clip-rule="evenodd" d="M122.886 19.0087C123.569 17.338 124.864 15.991 126.506 15.2429C128.149 14.4947 130.015 14.4018 131.724 14.9832C133.433 15.5645 134.855 16.7762 135.7 18.3708C136.546 19.9654 136.751 21.8227 136.273 23.5633L136.004 24.3424L117.517 69.8174L122.17 71.057C129.608 73.0475 135.799 79.0895 136.975 87.3345C137.98 94.4179 138.922 105.185 137.626 116.277C136.337 127.27 132.739 139.496 123.835 148.478C120.562 151.779 115.866 152.303 112.693 152.36C109.073 152.416 104.901 151.864 100.616 151.014C92.0025 149.3 81.675 146.126 71.9 142.755L68.9675 141.727L63.2087 139.645L57.6837 137.584L52.4846 135.579L45.5571 132.831L39.7346 130.458L33.9475 128.014C32.8119 127.534 31.8212 126.767 31.0733 125.787C30.3254 124.807 29.8462 123.648 29.683 122.426C29.5199 121.204 29.6785 119.961 30.1432 118.819C30.6079 117.677 31.3625 116.677 32.3325 115.916C42.0862 108.266 51.245 99.4683 58.9729 91.3437L62.72 87.3487L64.4908 85.4079L67.8342 81.6749L69.3925 79.8899L73.6 74.967L75.9871 72.0912C78.4866 69.0247 81.7682 66.6904 85.485 65.3351C89.2018 63.9798 93.2157 63.6538 97.1025 64.3916L98.5121 64.7174L103.733 66.1129L122.886 19.0087ZM74.875 95.0483C67.1198 103.631 58.8927 111.775 50.2321 119.443C54.3074 121.091 58.3992 122.697 62.5075 124.26C66.2842 121.568 69.6817 118.38 72.6083 114.782C73.8497 113.307 75.0038 111.76 76.065 110.15L77.0708 108.507C78.003 106.901 79.5285 105.725 81.3188 105.233C83.1092 104.74 85.0213 104.971 86.6435 105.874C88.2657 106.778 89.4682 108.282 89.9923 110.063C90.5163 111.845 90.32 113.761 89.4454 115.399C87.7879 118.374 85.7125 121.165 83.5521 123.785C81.8016 125.914 79.9284 127.938 77.9421 129.849C81.2146 130.968 84.4871 132.03 87.6604 133.008C90.3025 131.187 93.3979 127.447 96.2029 123.197C97.3315 121.497 98.3988 119.75 99.4046 117.956L100.85 115.236C101.683 113.552 103.151 112.267 104.931 111.666C106.711 111.064 108.657 111.194 110.341 112.027C112.025 112.86 113.31 114.328 113.911 116.108C114.513 117.888 114.383 119.835 113.55 121.519C111.928 124.791 110.037 127.957 108.025 131.003C106.629 133.125 105.13 135.177 103.534 137.152L106.516 137.732C109.08 138.207 111.786 138.54 114.23 138.037C119.656 132.264 122.468 123.885 123.552 114.627C123.802 112.473 123.963 110.339 124.033 108.223L74.875 95.0483ZM94.8429 78.4024C93.4072 78.0443 91.8989 78.1063 90.4974 78.581C89.096 79.0557 87.8605 79.9231 86.9379 81.0799L85.2167 83.1554L123.452 93.3979L123.12 90.6212L122.95 89.332C122.688 87.5399 121.42 85.8541 119.33 85.0112L118.508 84.742L94.8429 78.4024ZM39.9187 55.1549L40.3721 56.1466C42.3036 60.1423 45.3457 63.4966 49.1342 65.8083L49.8425 66.2191C49.9161 66.2613 49.9772 66.3221 50.0198 66.3955C50.0623 66.4689 50.0847 66.5522 50.0847 66.637C50.0847 66.7218 50.0623 66.8052 50.0198 66.8785C49.9772 66.9519 49.9161 67.0128 49.8425 67.0549L49.1342 67.4658C45.3463 69.7823 42.3066 73.1417 40.3792 77.1416L39.9258 78.1262C39.8865 78.2156 39.8221 78.2916 39.7403 78.345C39.6586 78.3983 39.563 78.4268 39.4654 78.4268C39.3678 78.4268 39.2722 78.3983 39.1905 78.345C39.1087 78.2916 39.0443 78.2156 39.005 78.1262L38.5517 77.1345C36.6201 73.1389 33.578 69.7845 29.7896 67.4729L29.0812 67.062C29.0077 67.0199 28.9465 66.959 28.904 66.8856C28.8614 66.8122 28.8391 66.7289 28.8391 66.6441C28.8391 66.5593 28.8614 66.476 28.904 66.4026C28.9465 66.3292 29.0077 66.2684 29.0812 66.2262L29.7896 65.8154C33.5748 63.4978 36.612 60.1385 38.5375 56.1395L38.9908 55.1549C39.0301 55.0656 39.0946 54.9895 39.1763 54.9362C39.2581 54.8828 39.3536 54.8544 39.4512 54.8544C39.5489 54.8544 39.6444 54.8828 39.7262 54.9362C39.8079 54.9895 39.8795 55.0656 39.9187 55.1549ZM59.9787 20.737C60.2621 20.0995 61.1546 20.0995 61.4379 20.737L62.1604 22.3095C65.2407 28.6677 70.0846 34.0058 76.1146 37.6874L77.2267 38.3462C77.3462 38.4123 77.4459 38.5093 77.5153 38.627C77.5847 38.7448 77.6213 38.8789 77.6213 39.0156C77.6213 39.1522 77.5847 39.2864 77.5153 39.4041C77.4459 39.5218 77.3462 39.6188 77.2267 39.6849L76.1075 40.3366C70.0765 44.0201 65.2325 49.3608 62.1533 55.7216L61.445 57.2941C61.3826 57.4366 61.28 57.5578 61.1498 57.6429C61.0196 57.728 60.8674 57.7733 60.7119 57.7733C60.5563 57.7733 60.4042 57.728 60.274 57.6429C60.1438 57.5578 60.0412 57.4366 59.9787 57.2941L59.2562 55.7216C56.1771 49.3608 51.333 44.0201 45.3021 40.3366L44.1829 39.6849C44.0633 39.6188 43.9637 39.5218 43.8943 39.4041C43.8249 39.2864 43.7883 39.1522 43.7883 39.0156C43.7883 38.8789 43.8249 38.7448 43.8943 38.627C43.9637 38.5093 44.0633 38.4123 44.1829 38.3462L45.3092 37.6874C51.3391 34.0058 56.183 28.6677 59.2633 22.3095L59.9717 20.737H59.9787Z" fill="url(#paint0_linear_449_11120)"/>
<defs>
<linearGradient id="paint0_linear_449_11120" x1="28.8391" y1="83.4846" x2="138.258" y2="83.4846" gradientUnits="userSpaceOnUse">
<stop stop-color="#3A8DFF"/>
<stop offset="1" stop-color="#00C2FF"/>
</linearGradient>
</defs>
</svg>
