<svg width="42" height="42" viewBox="0 0 42 42" fill="none" xmlns="http://www.w3.org/2000/svg">
<path fill-rule="evenodd" clip-rule="evenodd" d="M24.14 5.25C24.7871 5.25017 25.4178 5.45339 25.9427 5.83088C26.4676 6.20837 26.86 6.74099 27.0645 7.3533L27.9017 9.8625H32.9583C33.3672 9.8625 33.7593 10.0245 34.0485 10.3128C34.3376 10.6012 34.5 10.9922 34.5 11.4C34.5 11.8078 34.3376 12.1988 34.0485 12.4872C33.7593 12.7755 33.3672 12.9375 32.9583 12.9375H31.4167V31.3875C31.4167 32.6108 30.9294 33.784 30.062 34.649C29.1947 35.514 28.0183 36 26.7917 36H14.4583C13.2317 36 12.0553 35.514 11.188 34.649C10.3206 33.784 9.83333 32.6108 9.83333 31.3875V12.9375H8.29167C7.88279 12.9375 7.49066 12.7755 7.20154 12.4872C6.91243 12.1988 6.75 11.8078 6.75 11.4C6.75 10.9922 6.91243 10.6012 7.20154 10.3128C7.49066 10.0245 7.88279 9.8625 8.29167 9.8625H13.3483L14.1855 7.3533C14.39 6.74074 14.7828 6.20794 15.3079 5.83043C15.8331 5.45292 16.4642 5.24984 17.1115 5.25H24.14ZM28.3333 12.9375H12.9167V31.3875C12.9167 31.7953 13.0791 32.1863 13.3682 32.4747C13.6573 32.763 14.0495 32.925 14.4583 32.925H26.7917C27.2005 32.925 27.5927 32.763 27.8818 32.4747C28.1709 32.1863 28.3333 31.7953 28.3333 31.3875V12.9375ZM24.14 8.325H17.11L16.5966 9.8625H24.6534L24.14 8.325Z" fill="#E82B35"/>
</svg>
