<svg width="86" height="86" viewBox="0 0 86 86" fill="none" xmlns="http://www.w3.org/2000/svg">
<path fill-rule="evenodd" clip-rule="evenodd" d="M59.6431 54.7182C64.1114 48.9575 66.2173 41.7108 65.5323 34.4525C64.8473 27.1942 61.4229 20.4695 55.9557 15.6465C50.4885 10.8234 43.3892 8.26431 36.1021 8.4898C28.8151 8.7153 21.8876 11.7084 16.7291 16.8603C11.566 22.0157 8.56312 28.9459 8.33224 36.2385C8.10136 43.5311 10.6599 50.6373 15.4865 56.109C20.3131 61.5807 27.0444 65.0061 34.3088 65.6871C41.5732 66.3681 48.8239 64.2536 54.5834 59.7743L54.7375 59.9355L69.938 75.1396C70.2709 75.4726 70.6662 75.7367 71.1012 75.9168C71.5361 76.097 72.0024 76.1898 72.4732 76.1898C72.944 76.1898 73.4102 76.097 73.8452 75.9168C74.2802 75.7367 74.6755 75.4726 75.0084 75.1396C75.3413 74.8067 75.6054 74.4115 75.7856 73.9765C75.9658 73.5415 76.0585 73.0752 76.0585 72.6044C76.0585 72.1336 75.9658 71.6674 75.7856 71.2324C75.6054 70.7974 75.3413 70.4021 75.0084 70.0692L59.8043 54.8687L59.6431 54.7182ZM52.2041 21.9307C54.2272 23.9212 55.8363 26.2925 56.9384 28.908C58.0405 31.5234 58.6139 34.3311 58.6254 37.1693C58.637 40.0074 58.0865 42.8197 57.0057 45.444C55.9249 48.0684 54.3353 50.4527 52.3284 52.4596C50.3215 54.4665 47.9371 56.0562 45.3128 57.1369C42.6885 58.2177 39.8762 58.7682 37.038 58.7566C34.1999 58.7451 31.3922 58.1717 28.7767 57.0696C26.1613 55.9675 23.79 54.3585 21.7995 52.3353C17.8217 48.2922 15.6027 42.841 15.6258 37.1693C15.6489 31.4975 17.9122 26.0646 21.9228 22.054C25.9334 18.0434 31.3663 15.7801 37.038 15.757C42.7098 15.7339 48.161 17.9529 52.2041 21.9307Z" fill="#777777"/>
</svg>
