<svg width="24" height="24" viewBox="0 0 24 24" fill="none" xmlns="http://www.w3.org/2000/svg">
<path d="M20 8V6H18C17.7167 6 17.4793 5.904 17.288 5.712C17.0967 5.52 17.0007 5.28267 17 5C16.9993 4.71733 17.0953 4.48 17.288 4.288C17.4807 4.096 17.718 4 18 4H20C20.55 4 21.021 4.196 21.413 4.588C21.805 4.98 22.0007 5.45067 22 6V8C22 8.28333 21.904 8.521 21.712 8.713C21.52 8.905 21.2827 9.00067 21 9C20.7173 8.99933 20.48 8.90333 20.288 8.712C20.096 8.52067 20 8.28333 20 8ZM2 8V6C2 5.45 2.196 4.97933 2.588 4.588C2.98 4.19667 3.45067 4.00067 4 4H6C6.28333 4 6.521 4.096 6.713 4.288C6.905 4.48 7.00067 4.71733 7 5C6.99933 5.28267 6.90333 5.52033 6.712 5.713C6.52067 5.90567 6.28333 6.00133 6 6H4V8C4 8.28333 3.904 8.521 3.712 8.713C3.52 8.905 3.28267 9.00067 3 9C2.71733 8.99933 2.48 8.90333 2.288 8.712C2.096 8.52067 2 8.28333 2 8ZM20 20H18C17.7167 20 17.4793 19.904 17.288 19.712C17.0967 19.52 17.0007 19.2827 17 19C16.9993 18.7173 17.0953 18.48 17.288 18.288C17.4807 18.096 17.718 18 18 18H20V16C20 15.7167 20.096 15.4793 20.288 15.288C20.48 15.0967 20.7173 15.0007 21 15C21.2827 14.9993 21.5203 15.0953 21.713 15.288C21.9057 15.4807 22.0013 15.718 22 16V18C22 18.55 21.8043 19.021 21.413 19.413C21.0217 19.805 20.5507 20.0007 20 20ZM4 20C3.45 20 2.97933 19.8043 2.588 19.413C2.19667 19.0217 2.00067 18.5507 2 18V16C2 15.7167 2.096 15.4793 2.288 15.288C2.48 15.0967 2.71733 15.0007 3 15C3.28267 14.9993 3.52033 15.0953 3.713 15.288C3.90567 15.4807 4.00133 15.718 4 16V18H6C6.28333 18 6.521 18.096 6.713 18.288C6.905 18.48 7.00067 18.7173 7 19C6.99933 19.2827 6.90333 19.5203 6.712 19.713C6.52067 19.9057 6.28333 20.0013 6 20H4ZM6 14V10C6 9.45 6.196 8.97933 6.588 8.588C6.98 8.19667 7.45067 8.00067 8 8H16C16.55 8 17.021 8.196 17.413 8.588C17.805 8.98 18.0007 9.45067 18 10V14C18 14.55 17.8043 15.021 17.413 15.413C17.0217 15.805 16.5507 16.0007 16 16H8C7.45 16 6.97933 15.8043 6.588 15.413C6.19667 15.0217 6.00067 14.5507 6 14Z" fill="#3A8DFF"/>
</svg>
