<svg width="40" height="40" viewBox="0 0 40 40" fill="none" xmlns="http://www.w3.org/2000/svg">
<path d="M35.1149 8.71456C35.4556 9.07662 35.6386 9.55918 35.6236 10.0561C35.6086 10.5531 35.3968 11.0237 35.0349 11.3646L15.2099 30.0496C14.8058 30.4302 14.2687 30.6375 13.7137 30.6272C13.1587 30.6169 12.6297 30.3899 12.2399 29.9946L5.5399 23.1946C5.36248 23.0202 5.22151 22.8123 5.12522 22.583C5.02892 22.3537 4.97922 22.1075 4.979 21.8587C4.97879 21.61 5.02807 21.3637 5.12396 21.1342C5.21986 20.9047 5.36047 20.6966 5.53759 20.5219C5.71471 20.3473 5.9248 20.2097 6.15564 20.117C6.38648 20.0244 6.63344 19.9786 6.88215 19.9823C7.13085 19.9861 7.37633 20.0392 7.60428 20.1388C7.83223 20.2383 8.0381 20.3822 8.2099 20.5621L13.7949 26.2296L32.4649 8.63456C32.827 8.29383 33.3095 8.11085 33.8065 8.12585C34.3034 8.14086 34.7741 8.35261 35.1149 8.71456Z" fill="#009B0B"/>
</svg>
