<svg width="20" height="20" viewBox="0 0 20 20" fill="none" xmlns="http://www.w3.org/2000/svg">
<path d="M8.79165 15.1667L13.1042 10H9.77082L10.375 5.27086L6.52082 10.8334H9.41665L8.79165 15.1667ZM7.49998 12.5H4.91665C4.58332 12.5 4.33665 12.3509 4.17665 12.0525C4.01665 11.7542 4.03415 11.4659 4.22915 11.1875L10.4583 2.2292C10.5972 2.03475 10.7778 1.89948 11 1.82336C11.2222 1.74725 11.4514 1.75059 11.6875 1.83337C11.9236 1.91614 12.0972 2.06198 12.2083 2.27086C12.3194 2.47975 12.3611 2.70198 12.3333 2.93753L11.6667 8.33337H14.8958C15.2569 8.33337 15.5105 8.49309 15.6567 8.81253C15.8028 9.13198 15.7575 9.43059 15.5208 9.70836L8.66665 17.9167C8.51387 18.0973 8.32637 18.2153 8.10415 18.2709C7.88193 18.3264 7.66665 18.3056 7.45832 18.2084C7.24998 18.1111 7.08693 17.962 6.96915 17.7609C6.85137 17.5598 6.80609 17.3409 6.83332 17.1042L7.49998 12.5Z" fill="white"/>
</svg>
