<svg width="24" height="24" viewBox="0 0 24 24" fill="none" xmlns="http://www.w3.org/2000/svg">
<path d="M6.2 10C5.88174 10 5.57652 10.1317 5.35147 10.3661C5.12643 10.6005 5 10.9185 5 11.25C5 11.5815 5.12643 11.8995 5.35147 12.1339C5.57652 12.3683 5.88174 12.5 6.2 12.5H6.2096C6.52786 12.5 6.83308 12.3683 7.05813 12.1339C7.28317 11.8995 7.4096 11.5815 7.4096 11.25C7.4096 10.9185 7.28317 10.6005 7.05813 10.3661C6.83308 10.1317 6.52786 10 6.2096 10H6.2Z" fill="#3A8DFF"/>
<path d="M6.57143 4.57143C6.57143 3.88944 6.84235 3.23539 7.32458 2.75315C7.80682 2.27092 8.46087 2 9.14286 2H19.4286C20.1106 2 20.7646 2.27092 21.2468 2.75315C21.7291 3.23539 22 3.88944 22 4.57143V14.8571C22 15.5391 21.7291 16.1932 21.2468 16.6754C20.7646 17.1577 20.1106 17.4286 19.4286 17.4286H17.4286V19.4286C17.4286 20.1106 17.1577 20.7646 16.6754 21.2468C16.1932 21.7291 15.5391 22 14.8571 22H4.57143C3.88944 22 3.23539 21.7291 2.75315 21.2468C2.27092 20.7646 2 20.1106 2 19.4286V9.14286C2 8.46087 2.27092 7.80682 2.75315 7.32458C3.23539 6.84235 3.88944 6.57143 4.57143 6.57143H6.57143V4.57143ZM15.7143 9.14286C15.7143 8.91553 15.624 8.69751 15.4632 8.53677C15.3025 8.37602 15.0845 8.28571 14.8571 8.28571H4.57143C4.3441 8.28571 4.12608 8.37602 3.96534 8.53677C3.80459 8.69751 3.71429 8.91553 3.71429 9.14286V17.0766L10.192 13.7189C10.6624 13.4748 11.1967 13.382 11.7218 13.4532C12.247 13.5244 12.7373 13.7561 13.1257 14.1166L15.7143 16.5211V9.14286ZM3.71429 19.4286C3.71429 19.9017 4.09829 20.2857 4.57143 20.2857H14.8571C15.0845 20.2857 15.3025 20.1954 15.4632 20.0347C15.624 19.8739 15.7143 19.6559 15.7143 19.4286V18.8606L11.9589 15.3737C11.8296 15.2535 11.6663 15.1762 11.4914 15.1522C11.3166 15.1283 11.1385 15.159 10.9817 15.24L3.71429 19.008V19.4286ZM8.28571 6.57143H14.8571C15.5391 6.57143 16.1932 6.84235 16.6754 7.32458C17.1577 7.80682 17.4286 8.46087 17.4286 9.14286V15.7143H19.4286C19.6559 15.7143 19.8739 15.624 20.0347 15.4632C20.1954 15.3025 20.2857 15.0845 20.2857 14.8571V4.57143C20.2857 4.3441 20.1954 4.12608 20.0347 3.96534C19.8739 3.80459 19.6559 3.71429 19.4286 3.71429H9.14286C8.91553 3.71429 8.69751 3.80459 8.53677 3.96534C8.37602 4.12608 8.28571 4.3441 8.28571 4.57143V6.57143Z" fill="#3A8DFF"/>
</svg>
