<svg width="24" height="24" viewBox="0 0 24 24" fill="none" xmlns="http://www.w3.org/2000/svg">
<path d="M6.077 17L4.373 18.704C4.12033 18.9567 3.82833 19.0137 3.497 18.875C3.16567 18.7363 3 18.489 3 18.133V4.616C3 4.15533 3.15433 3.771 3.463 3.463C3.77167 3.155 4.15567 3.00067 4.615 3H19.385C19.845 3 20.229 3.15433 20.537 3.463C20.845 3.77167 20.9993 4.156 21 4.616V15.385C21 15.845 20.8457 16.2293 20.537 16.538C20.2283 16.8467 19.8443 17.0007 19.385 17H6.077ZM7 13.5H13C13.142 13.5 13.2607 13.452 13.356 13.356C13.4513 13.26 13.4993 13.141 13.5 12.999C13.5007 12.857 13.4527 12.7383 13.356 12.643C13.2593 12.5477 13.1407 12.5 13 12.5H7C6.858 12.5 6.73933 12.548 6.644 12.644C6.54867 12.74 6.50067 12.859 6.5 13.001C6.49933 13.143 6.54733 13.2617 6.644 13.357C6.74067 13.4523 6.85933 13.5 7 13.5ZM7 10.5H17C17.142 10.5 17.2607 10.452 17.356 10.356C17.4513 10.26 17.4993 10.141 17.5 9.999C17.5007 9.857 17.4527 9.73833 17.356 9.643C17.2593 9.54767 17.1407 9.5 17 9.5H7C6.858 9.5 6.73933 9.548 6.644 9.644C6.54867 9.74 6.50067 9.859 6.5 10.001C6.49933 10.143 6.54733 10.2617 6.644 10.357C6.74067 10.4523 6.85933 10.5 7 10.5ZM7 7.5H17C17.142 7.5 17.2607 7.452 17.356 7.356C17.4513 7.26 17.4993 7.141 17.5 6.999C17.5007 6.857 17.4527 6.73833 17.356 6.643C17.2593 6.54767 17.1407 6.5 17 6.5H7C6.858 6.5 6.73933 6.548 6.644 6.644C6.54867 6.74 6.50067 6.859 6.5 7.001C6.49933 7.143 6.54733 7.26167 6.644 7.357C6.74067 7.45233 6.85933 7.5 7 7.5Z" fill="#3A8DFF"/>
</svg>
