<svg width="20" height="20" viewBox="0 0 20 20" fill="none" xmlns="http://www.w3.org/2000/svg">
<path d="M15.2083 9.16667C15.2083 5.82994 12.5034 3.125 9.16667 3.125C5.82994 3.125 3.125 5.82994 3.125 9.16667C3.125 12.5034 5.82994 15.2083 9.16667 15.2083C12.5034 15.2083 15.2083 12.5034 15.2083 9.16667ZM16.4583 9.16667C16.4583 10.9552 15.8131 12.5921 14.7445 13.8607L17.9419 17.0581L17.985 17.1053C18.1853 17.3508 18.1707 17.7131 17.9419 17.9419C17.7131 18.1707 17.3508 18.1853 17.1053 17.985L17.0581 17.9419L13.8607 14.7445C12.5921 15.8131 10.9552 16.4583 9.16667 16.4583C5.13959 16.4583 1.875 13.1938 1.875 9.16667C1.875 5.13959 5.13959 1.875 9.16667 1.875C13.1938 1.875 16.4583 5.13959 16.4583 9.16667Z" fill="#8A8A8A"/>
</svg>
